<svg width="441.44374999999997px" height="122px" xmlns="http://www.w3.org/2000/svg" viewBox="29.278125000000017 14 441.44374999999997 122" style="background: rgba(0, 0, 0, 0);" preserveAspectRatio="xMidYMid"><defs><linearGradient id="editing-shiny-gradient" x1="0.04322727117869957" x2="0.9567727288213004" y1="0.2966316784620999" y2="0.7033683215379001" gradientUnits="objectBoundingBox"><stop offset="0.0" stop-color="#ffb200"></stop><stop offset="0.5" stop-color="#e10057"></stop><stop offset="1.0" stop-color="#5A1A80"></stop></linearGradient><linearGradient id="editing-shiny-gradient2" x1="0" x2="0" y1="0" y2="1"><stop offset="0.2" stop-color="#fff" stop-opacity="0.8"></stop><stop offset="0.8" stop-color="#fff" stop-opacity="0"></stop></linearGradient><filter id="editing-shiny2" x="-100%" y="-100%" width="300%" height="300%"><feMorphology operator="erode" radius="2"></feMorphology></filter><filter id="editing-shiny" x="-100%" y="-100%" width="300%" height="300%"><feFlood flood-color="#fff" result="flood"></feFlood><feConvolveMatrix in="SourceGraphic" result="conv" order="8,8" divisor="1" kernelMatrix="0 0 0 0 0 0 0 0 0 0 0 1 1 0 0 0 0 0 0 1 1 0 0 0 0 0 1 0 0 1 0 0 0 0 1 0 0 1 0 0 0 1 0 0 0 0 1 0 0 1 1 0 0 1 1 0 0 0 0 1 1 0 0 0 "></feConvolveMatrix><feOffset dx="0" dy="4" in="conv" result="offset"></feOffset><feComposite operator="in" in="flood" in2="offset" result="comp"></feComposite><feGaussianBlur in="offset" stdDeviation="3" result="shadow"></feGaussianBlur><feColorMatrix in="shadow" type="matrix" values="0.7 0 0 0 0  0 0.7 0 0 0  0 0 0.7 0 0  0 0 0 0.3 0" result="dark-shadow"></feColorMatrix><feOffset dx="0" dy="4" in="dark-shadow" result="offset-shadow"></feOffset><feOffset dx="0" dy="2" in="conv" result="offset-2"></feOffset><feComposite operator="out" in="offset" in2="offset-2" result="edge-diff"></feComposite><feGaussianBlur in="edge-diff" stdDeviation="1" result="edge-blur"></feGaussianBlur><feColorMatrix in="edge-blur" result="edge-shadow" type="matrix" values="0 0 0 0 0  0 0 0 0 0  0 0 0 0 0  0 0 0 0.5 0"></feColorMatrix><feComposite operator="in" in="edge-shadow" in2="offset" result="edge-shadow-in"></feComposite><feOffset dx="0" dy="1" in="edge-shadow-in" result="edge-shadow-final"></feOffset><feMerge result="out"><feMergeNode in="offset-shadow"></feMergeNode><feMergeNode in="comp"></feMergeNode><feMergeNode in="edge-shadow-final"></feMergeNode><feMergeNode in="SourceGraphic"></feMergeNode></feMerge></filter></defs><g filter="url(#editing-shiny)"><g transform="translate(94.70496439933777, 104.76000022888184)"><path d="M2.11-6.40L2.11-6.40L2.11-6.40Q2.11-8.13 3.01-12.48L3.01-12.48L6.40-29.76L2.62-29.76L2.88-31.68L2.88-31.68Q10.56-33.98 17.98-39.62L17.98-39.62L21.06-39.62L19.52-32.64L24.51-32.64L23.94-29.76L19.01-29.76L15.74-12.48L15.74-12.48Q14.91-8.51 14.91-7.17L14.91-7.17L14.91-7.17Q14.91-4.10 17.60-3.46L17.60-3.46L17.60-3.46Q16.96-1.28 14.66 0L14.66 0L14.66 0Q12.35 1.28 9.09 1.28L9.09 1.28L9.09 1.28Q5.82 1.28 3.97-0.77L3.97-0.77L3.97-0.77Q2.11-2.82 2.11-6.40ZM44.22-17.98L44.22-17.98L44.22-17.98Q46.53-22.08 46.53-26.24L46.53-26.24L46.53-26.24Q46.53-28.99 44.54-28.99L44.54-28.99L44.54-28.99Q43.01-28.99 41.41-26.37L41.41-26.37L41.41-26.37Q39.74-23.74 39.23-20.35L39.23-20.35L35.90 0L22.66 1.28L29.18-32.64L39.74-33.92L38.59-27.46L38.59-27.46Q41.73-33.92 48.77-33.92L48.77-33.92L48.77-33.92Q52.48-33.92 54.50-32L54.50-32L54.50-32Q56.51-30.08 56.51-26.14L56.51-26.14L56.51-26.14Q56.51-22.21 53.92-19.71L53.92-19.71L53.92-19.71Q51.33-17.22 46.91-17.22L46.91-17.22L46.91-17.22Q44.99-17.22 44.22-17.98ZM83.46-10.82L83.46-10.82L83.46-10.82Q85.06-9.73 85.06-7.33L85.06-7.33L85.06-7.33Q85.06-4.93 83.84-3.39L83.84-3.39L83.84-3.39Q82.62-1.86 80.64-0.83L80.64-0.83L80.64-0.83Q76.54 1.28 72.13 1.28L72.13 1.28L72.13 1.28Q67.71 1.28 65.12 0.32L65.12 0.32L65.12 0.32Q62.53-0.64 60.80-2.43L60.80-2.43L60.80-2.43Q57.41-5.82 57.41-12.03L57.41-12.03L57.41-12.03Q57.41-21.70 62.66-27.58L62.66-27.58L62.66-27.58Q68.29-33.92 78.08-33.92L78.08-33.92L78.08-33.92Q84.16-33.92 87.17-31.36L87.17-31.36L87.17-31.36Q89.41-29.44 89.41-26.30L89.41-26.30L89.41-26.30Q89.41-15.04 69.95-15.04L69.95-15.04L69.95-15.04Q69.70-13.38 69.70-11.97L69.70-11.97L69.70-11.97Q69.70-9.02 71.01-7.90L71.01-7.90L71.01-7.90Q72.32-6.78 74.75-6.78L74.75-6.78L74.75-6.78Q77.18-6.78 79.78-7.90L79.78-7.90L79.78-7.90Q82.37-9.02 83.46-10.82ZM70.40-17.79L70.40-17.79L70.40-17.79Q74.94-17.79 77.57-20.61L77.57-20.61L77.57-20.61Q80.19-23.30 80.19-27.58L80.19-27.58L80.19-27.58Q80.19-29.06 79.65-29.86L79.65-29.86L79.65-29.86Q79.10-30.66 78.02-30.66L78.02-30.66L78.02-30.66Q76.93-30.66 76-30.24L76-30.24L76-30.24Q75.07-29.82 74.11-28.42L74.11-28.42L74.11-28.42Q71.74-25.22 70.40-17.79ZM118.66 1.28L118.66 1.28L118.66 1.28Q110.91 1.28 110.91-4.74L110.91-4.74L110.91-4.74Q110.98-6.40 111.49-9.22L111.49-9.22L112.64-15.10L112.64-15.10Q114.37-23.42 114.37-25.28L114.37-25.28L114.37-25.28Q114.37-28.99 112.19-28.99L112.19-28.99L112.19-28.99Q108.54-28.99 106.62-19.46L106.62-19.46L102.85 0L89.98 1.28L96.64-32.70L107.14-33.92L106.11-27.65L106.11-27.65Q109.12-33.92 118.34-33.92L118.34-33.92L118.34-33.92Q122.82-33.92 124.70-32.03L124.70-32.03L124.70-32.03Q126.59-30.14 126.59-25.92L126.59-25.92L126.59-25.92Q126.59-21.95 124.54-12.67L124.54-12.67L124.54-12.67Q123.58-8.51 123.58-6.94L123.58-6.94L123.58-6.94Q123.58-5.38 124.45-4.48L124.45-4.48L124.45-4.48Q125.31-3.58 126.59-3.46L126.59-3.46L126.59-3.46Q125.95-1.28 123.74 0L123.74 0L123.74 0Q121.54 1.28 118.66 1.28ZM151.87-33.92L151.87-33.92L151.87-33.92Q154.18-33.92 155.97-33.41L155.97-33.41L155.97-33.41Q156.03-33.66 156.16-34.37L156.16-34.37L156.48-36.35L156.48-36.35Q156.74-37.63 157.12-39.74L157.12-39.74L158.14-44.80L170.88-46.08L163.78-8.96L163.78-8.96Q163.71-8.58 163.71-7.94L163.71-7.94L163.71-6.91L163.71-6.91Q163.71-5.50 164.42-4.45L164.42-4.45L164.42-4.45Q165.12-3.39 166.27-3.39L166.27-3.39L166.27-3.39Q164.99-0.38 161.09 0.90L161.09 0.90L161.09 0.90Q159.74 1.28 157.86 1.28L157.86 1.28L157.86 1.28Q155.97 1.28 154.24 0.29L154.24 0.29L154.24 0.29Q152.51-0.70 152.00-2.37L152.00-2.37L152.00-2.37Q150.98-0.70 148.93 0.29L148.93 0.29L148.93 0.29Q146.88 1.28 143.90 1.28L143.90 1.28L143.90 1.28Q140.93 1.28 138.46 0.51L138.46 0.51L138.46 0.51Q136.00-0.26 134.46-1.92L134.46-1.92L134.46-1.92Q131.65-5.18 131.65-12.61L131.65-12.61L131.65-12.61Q131.65-22.21 137.28-28.03L137.28-28.03L137.28-28.03Q142.91-33.92 151.87-33.92ZM151.42-30.08L151.42-30.08L151.42-30.08Q149.06-30.08 147.78-27.52L147.78-27.52L147.78-27.52Q146.50-24.96 145.18-18.62L145.18-18.62L145.18-18.62Q143.87-12.29 143.87-6.59L143.87-6.59L143.87-6.59Q143.87-2.69 146.18-2.69L146.18-2.69L146.18-2.69Q148.22-2.69 149.66-4.74L149.66-4.74L149.66-4.74Q151.10-6.78 151.68-10.18L151.68-10.18L155.14-28.93L155.14-28.93Q153.79-30.08 151.42-30.08ZM191.87-33.92L191.87-33.92L191.87-33.92Q194.18-33.92 195.97-33.41L195.97-33.41L195.97-33.41Q196.03-33.66 196.16-34.37L196.16-34.37L196.48-36.35L196.48-36.35Q196.74-37.63 197.12-39.74L197.12-39.74L198.14-44.80L210.88-46.08L203.78-8.96L203.78-8.96Q203.71-8.58 203.71-7.94L203.71-7.94L203.71-6.91L203.71-6.91Q203.71-5.50 204.42-4.45L204.42-4.45L204.42-4.45Q205.12-3.39 206.27-3.39L206.27-3.39L206.27-3.39Q204.99-0.38 201.09 0.90L201.09 0.90L201.09 0.90Q199.74 1.28 197.86 1.28L197.86 1.28L197.86 1.28Q195.97 1.28 194.24 0.29L194.24 0.29L194.24 0.29Q192.51-0.70 192.00-2.37L192.00-2.37L192.00-2.37Q190.98-0.70 188.93 0.29L188.93 0.29L188.93 0.29Q186.88 1.28 183.90 1.28L183.90 1.28L183.90 1.28Q180.93 1.28 178.46 0.51L178.46 0.51L178.46 0.51Q176.00-0.26 174.46-1.92L174.46-1.92L174.46-1.92Q171.65-5.18 171.65-12.61L171.65-12.61L171.65-12.61Q171.65-22.21 177.28-28.03L177.28-28.03L177.28-28.03Q182.91-33.92 191.87-33.92ZM191.42-30.08L191.42-30.08L191.42-30.08Q189.06-30.08 187.78-27.52L187.78-27.52L187.78-27.52Q186.50-24.96 185.18-18.62L185.18-18.62L185.18-18.62Q183.87-12.29 183.87-6.59L183.87-6.59L183.87-6.59Q183.87-2.69 186.18-2.69L186.18-2.69L186.18-2.69Q188.22-2.69 189.66-4.74L189.66-4.74L189.66-4.74Q191.10-6.78 191.68-10.18L191.68-10.18L195.14-28.93L195.14-28.93Q193.79-30.08 191.42-30.08ZM227.07-3.52L227.07-3.52L227.07-3.52Q225.09 1.28 218.75 1.28L218.75 1.28L218.75 1.28Q215.49 1.28 213.44-0.96L213.44-0.96L213.44-0.96Q211.71-2.94 211.71-4.93L211.71-4.93L211.71-4.93Q211.71-10.11 214.08-20.22L214.08-20.22L216.45-32.64L229.44-33.92L225.54-13.70L225.54-13.70Q224.45-8.96 224.45-7.30L224.45-7.30L224.45-7.30Q224.45-3.65 227.07-3.52ZM217.60-41.54L217.60-41.54L217.60-41.54Q217.60-44.03 219.68-45.38L219.68-45.38L219.68-45.38Q221.76-46.72 224.77-46.72L224.77-46.72L224.77-46.72Q227.78-46.72 229.60-45.38L229.60-45.38L229.60-45.38Q231.42-44.03 231.42-41.54L231.42-41.54L231.42-41.54Q231.42-39.04 229.41-37.76L229.41-37.76L229.41-37.76Q227.39-36.48 224.38-36.48L224.38-36.48L224.38-36.48Q221.38-36.48 219.49-37.76L219.49-37.76L219.49-37.76Q217.60-39.04 217.60-41.54ZM259.58 1.28L259.58 1.28L259.58 1.28Q251.84 1.28 251.84-4.74L251.84-4.74L251.84-4.74Q251.90-6.40 252.42-9.22L252.42-9.22L253.57-15.10L253.57-15.10Q255.30-23.42 255.30-25.28L255.30-25.28L255.30-25.28Q255.30-28.99 253.12-28.99L253.12-28.99L253.12-28.99Q249.47-28.99 247.55-19.46L247.55-19.46L243.78 0L230.91 1.28L237.57-32.70L248.06-33.92L247.04-27.65L247.04-27.65Q250.05-33.92 259.26-33.92L259.26-33.92L259.26-33.92Q263.74-33.92 265.63-32.03L265.63-32.03L265.63-32.03Q267.52-30.14 267.52-25.92L267.52-25.92L267.52-25.92Q267.52-21.95 265.47-12.67L265.47-12.67L265.47-12.67Q264.51-8.51 264.51-6.94L264.51-6.94L264.51-6.94Q264.51-5.38 265.38-4.48L265.38-4.48L265.38-4.48Q266.24-3.58 267.52-3.46L267.52-3.46L267.52-3.46Q266.88-1.28 264.67 0L264.67 0L264.67 0Q262.46 1.28 259.58 1.28ZM277.18-26.75L277.18-26.75L277.18-26.75Q279.36-29.82 282.66-31.87L282.66-31.87L282.66-31.87Q285.95-33.92 289.98-33.92L289.98-33.92L289.98-33.92Q294.02-33.92 295.94-32.64L295.94-32.64L308.48-33.92L304.13-9.34L304.13-9.34Q301.89 3.20 297.15 8.13L297.15 8.13L297.15 8.13Q292.61 12.80 283.78 12.80L283.78 12.80L283.78 12.80Q277.06 12.80 273.22 10.69L273.22 10.69L273.22 10.69Q269.38 8.58 269.38 5.06L269.38 5.06L269.38 5.06Q269.38 2.43 271.36 0.93L271.36 0.93L271.36 0.93Q273.34-0.58 276.42-0.58L276.42-0.58L276.42-0.58Q279.10-0.58 281.15 0.64L281.15 0.64L281.15 0.64Q282.37 1.28 282.94 2.18L282.94 2.18L282.94 2.18Q281.47 3.46 281.47 5.57L281.47 5.57L281.47 5.57Q281.47 8.32 284.03 8.32L284.03 8.32L284.03 8.32Q288.32 8.32 290.75-1.79L290.75-1.79L290.75-1.79Q291.46-4.54 292.03-7.30L292.03-7.30L292.03-7.30Q289.15-3.78 282.62-3.78L282.62-3.78L282.62-3.78Q278.08-3.78 275.46-5.95L275.46-5.95L275.46-5.95Q272.83-8.13 272.83-13.25L272.83-13.25L272.83-13.25Q272.83-16.45 273.92-20.06L273.92-20.06L273.92-20.06Q275.01-23.68 277.18-26.75ZM285.50-13.06L285.50-13.06L285.50-13.06Q285.50-8.70 287.74-8.70L287.74-8.70L287.74-8.70Q289.28-8.70 290.75-10.37L290.75-10.37L290.75-10.37Q291.90-11.71 292.35-13.70L292.35-13.70L295.62-30.14L295.62-30.14Q295.30-30.21 294.98-30.34L294.98-30.34L294.98-30.34Q294.34-30.59 293.50-30.59L293.50-30.59L293.50-30.59Q289.60-30.59 287.30-24.19L287.30-24.19L287.30-24.19Q285.50-19.20 285.50-13.06Z" fill="url(#editing-shiny-gradient)"></path></g></g><g filter="url(#editing-shiny2)"><g transform="translate(94.7049949169159, 104.76000022888184)"><path d="M2.11-6.40L2.11-6.40L2.11-6.40Q2.11-8.13 3.01-12.48L3.01-12.48L6.40-29.76L2.62-29.76L2.88-31.68L2.88-31.68Q10.56-33.98 17.98-39.62L17.98-39.62L21.06-39.62L19.52-32.64L24.51-32.64L23.94-29.76L19.01-29.76L15.74-12.48L15.74-12.48Q14.91-8.51 14.91-7.17L14.91-7.17L14.91-7.17Q14.91-4.10 17.60-3.46L17.60-3.46L17.60-3.46Q16.96-1.28 14.66 0L14.66 0L14.66 0Q12.35 1.28 9.09 1.28L9.09 1.28L9.09 1.28Q5.82 1.28 3.97-0.77L3.97-0.77L3.97-0.77Q2.11-2.82 2.11-6.40ZM44.22-17.98L44.22-17.98L44.22-17.98Q46.53-22.08 46.53-26.24L46.53-26.24L46.53-26.24Q46.53-28.99 44.54-28.99L44.54-28.99L44.54-28.99Q43.01-28.99 41.41-26.37L41.41-26.37L41.41-26.37Q39.74-23.74 39.23-20.35L39.23-20.35L35.90 0L22.66 1.28L29.18-32.64L39.74-33.92L38.59-27.46L38.59-27.46Q41.73-33.92 48.77-33.92L48.77-33.92L48.77-33.92Q52.48-33.92 54.50-32L54.50-32L54.50-32Q56.51-30.08 56.51-26.14L56.51-26.14L56.51-26.14Q56.51-22.21 53.92-19.71L53.92-19.71L53.92-19.71Q51.33-17.22 46.91-17.22L46.91-17.22L46.91-17.22Q44.99-17.22 44.22-17.98ZM83.46-10.82L83.46-10.82L83.46-10.82Q85.06-9.73 85.06-7.33L85.06-7.33L85.06-7.33Q85.06-4.93 83.84-3.39L83.84-3.39L83.84-3.39Q82.62-1.86 80.64-0.83L80.64-0.83L80.64-0.83Q76.54 1.28 72.13 1.28L72.13 1.28L72.13 1.28Q67.71 1.28 65.12 0.32L65.12 0.32L65.12 0.32Q62.53-0.64 60.80-2.43L60.80-2.43L60.80-2.43Q57.41-5.82 57.41-12.03L57.41-12.03L57.41-12.03Q57.41-21.70 62.66-27.58L62.66-27.58L62.66-27.58Q68.29-33.92 78.08-33.92L78.08-33.92L78.08-33.92Q84.16-33.92 87.17-31.36L87.17-31.36L87.17-31.36Q89.41-29.44 89.41-26.30L89.41-26.30L89.41-26.30Q89.41-15.04 69.95-15.04L69.95-15.04L69.95-15.04Q69.70-13.38 69.70-11.97L69.70-11.97L69.70-11.97Q69.70-9.02 71.01-7.90L71.01-7.90L71.01-7.90Q72.32-6.78 74.75-6.78L74.75-6.78L74.75-6.78Q77.18-6.78 79.78-7.90L79.78-7.90L79.78-7.90Q82.37-9.02 83.46-10.82ZM70.40-17.79L70.40-17.79L70.40-17.79Q74.94-17.79 77.57-20.61L77.57-20.61L77.57-20.61Q80.19-23.30 80.19-27.58L80.19-27.58L80.19-27.58Q80.19-29.06 79.65-29.86L79.65-29.86L79.65-29.86Q79.10-30.66 78.02-30.66L78.02-30.66L78.02-30.66Q76.93-30.66 76-30.24L76-30.24L76-30.24Q75.07-29.82 74.11-28.42L74.11-28.42L74.11-28.42Q71.74-25.22 70.40-17.79ZM118.66 1.28L118.66 1.28L118.66 1.28Q110.91 1.28 110.91-4.74L110.91-4.74L110.91-4.74Q110.98-6.40 111.49-9.22L111.49-9.22L112.64-15.10L112.64-15.10Q114.37-23.42 114.37-25.28L114.37-25.28L114.37-25.28Q114.37-28.99 112.19-28.99L112.19-28.99L112.19-28.99Q108.54-28.99 106.62-19.46L106.62-19.46L102.85 0L89.98 1.28L96.64-32.70L107.14-33.92L106.11-27.65L106.11-27.65Q109.12-33.92 118.34-33.92L118.34-33.92L118.34-33.92Q122.82-33.92 124.70-32.03L124.70-32.03L124.70-32.03Q126.59-30.14 126.59-25.92L126.59-25.92L126.59-25.92Q126.59-21.95 124.54-12.67L124.54-12.67L124.54-12.67Q123.58-8.51 123.58-6.94L123.58-6.94L123.58-6.94Q123.58-5.38 124.45-4.48L124.45-4.48L124.45-4.48Q125.31-3.58 126.59-3.46L126.59-3.46L126.59-3.46Q125.95-1.28 123.74 0L123.74 0L123.74 0Q121.54 1.28 118.66 1.28ZM151.87-33.92L151.87-33.92L151.87-33.92Q154.18-33.92 155.97-33.41L155.97-33.41L155.97-33.41Q156.03-33.66 156.16-34.37L156.16-34.37L156.48-36.35L156.48-36.35Q156.74-37.63 157.12-39.74L157.12-39.74L158.14-44.80L170.88-46.08L163.78-8.96L163.78-8.96Q163.71-8.58 163.71-7.94L163.71-7.94L163.71-6.91L163.71-6.91Q163.71-5.50 164.42-4.45L164.42-4.45L164.42-4.45Q165.12-3.39 166.27-3.39L166.27-3.39L166.27-3.39Q164.99-0.38 161.09 0.90L161.09 0.90L161.09 0.90Q159.74 1.28 157.86 1.28L157.86 1.28L157.86 1.28Q155.97 1.28 154.24 0.29L154.24 0.29L154.24 0.29Q152.51-0.70 152.00-2.37L152.00-2.37L152.00-2.37Q150.98-0.70 148.93 0.29L148.93 0.29L148.93 0.29Q146.88 1.28 143.90 1.28L143.90 1.28L143.90 1.28Q140.93 1.28 138.46 0.51L138.46 0.51L138.46 0.51Q136.00-0.26 134.46-1.92L134.46-1.92L134.46-1.92Q131.65-5.18 131.65-12.61L131.65-12.61L131.65-12.61Q131.65-22.21 137.28-28.03L137.28-28.03L137.28-28.03Q142.91-33.92 151.87-33.92ZM151.42-30.08L151.42-30.08L151.42-30.08Q149.06-30.08 147.78-27.52L147.78-27.52L147.78-27.52Q146.50-24.96 145.18-18.62L145.18-18.62L145.18-18.62Q143.87-12.29 143.87-6.59L143.87-6.59L143.87-6.59Q143.87-2.69 146.18-2.69L146.18-2.69L146.18-2.69Q148.22-2.69 149.66-4.74L149.66-4.74L149.66-4.74Q151.10-6.78 151.68-10.18L151.68-10.18L155.14-28.93L155.14-28.93Q153.79-30.08 151.42-30.08ZM191.87-33.92L191.87-33.92L191.87-33.92Q194.18-33.92 195.97-33.41L195.97-33.41L195.97-33.41Q196.03-33.66 196.16-34.37L196.16-34.37L196.48-36.35L196.48-36.35Q196.74-37.63 197.12-39.74L197.12-39.74L198.14-44.80L210.88-46.08L203.78-8.96L203.78-8.96Q203.71-8.58 203.71-7.94L203.71-7.94L203.71-6.91L203.71-6.91Q203.71-5.50 204.42-4.45L204.42-4.45L204.42-4.45Q205.12-3.39 206.27-3.39L206.27-3.39L206.27-3.39Q204.99-0.38 201.09 0.90L201.09 0.90L201.09 0.90Q199.74 1.28 197.86 1.28L197.86 1.28L197.86 1.28Q195.97 1.28 194.24 0.29L194.24 0.29L194.24 0.29Q192.51-0.70 192.00-2.37L192.00-2.37L192.00-2.37Q190.98-0.70 188.93 0.29L188.93 0.29L188.93 0.29Q186.88 1.28 183.90 1.28L183.90 1.28L183.90 1.28Q180.93 1.28 178.46 0.51L178.46 0.51L178.46 0.51Q176.00-0.26 174.46-1.92L174.46-1.92L174.46-1.92Q171.65-5.18 171.65-12.61L171.65-12.61L171.65-12.61Q171.65-22.21 177.28-28.03L177.28-28.03L177.28-28.03Q182.91-33.92 191.87-33.92ZM191.42-30.08L191.42-30.08L191.42-30.08Q189.06-30.08 187.78-27.52L187.78-27.52L187.78-27.52Q186.50-24.96 185.18-18.62L185.18-18.62L185.18-18.62Q183.87-12.29 183.87-6.59L183.87-6.59L183.87-6.59Q183.87-2.69 186.18-2.69L186.18-2.69L186.18-2.69Q188.22-2.69 189.66-4.74L189.66-4.74L189.66-4.74Q191.10-6.78 191.68-10.18L191.68-10.18L195.14-28.93L195.14-28.93Q193.79-30.08 191.42-30.08ZM227.07-3.52L227.07-3.52L227.07-3.52Q225.09 1.28 218.75 1.28L218.75 1.28L218.75 1.28Q215.49 1.28 213.44-0.96L213.44-0.96L213.44-0.96Q211.71-2.94 211.71-4.93L211.71-4.93L211.71-4.93Q211.71-10.11 214.08-20.22L214.08-20.22L216.45-32.64L229.44-33.92L225.54-13.70L225.54-13.70Q224.45-8.96 224.45-7.30L224.45-7.30L224.45-7.30Q224.45-3.65 227.07-3.52ZM217.60-41.54L217.60-41.54L217.60-41.54Q217.60-44.03 219.68-45.38L219.68-45.38L219.68-45.38Q221.76-46.72 224.77-46.72L224.77-46.72L224.77-46.72Q227.78-46.72 229.60-45.38L229.60-45.38L229.60-45.38Q231.42-44.03 231.42-41.54L231.42-41.54L231.42-41.54Q231.42-39.04 229.41-37.76L229.41-37.76L229.41-37.76Q227.39-36.48 224.38-36.48L224.38-36.48L224.38-36.48Q221.38-36.48 219.49-37.76L219.49-37.76L219.49-37.76Q217.60-39.04 217.60-41.54ZM259.58 1.28L259.58 1.28L259.58 1.28Q251.84 1.28 251.84-4.74L251.84-4.74L251.84-4.74Q251.90-6.40 252.42-9.22L252.42-9.22L253.57-15.10L253.57-15.10Q255.30-23.42 255.30-25.28L255.30-25.28L255.30-25.28Q255.30-28.99 253.12-28.99L253.12-28.99L253.12-28.99Q249.47-28.99 247.55-19.46L247.55-19.46L243.78 0L230.91 1.28L237.57-32.70L248.06-33.92L247.04-27.65L247.04-27.65Q250.05-33.92 259.26-33.92L259.26-33.92L259.26-33.92Q263.74-33.92 265.63-32.03L265.63-32.03L265.63-32.03Q267.52-30.14 267.52-25.92L267.52-25.92L267.52-25.92Q267.52-21.95 265.47-12.67L265.47-12.67L265.47-12.67Q264.51-8.51 264.51-6.94L264.51-6.94L264.51-6.94Q264.51-5.38 265.38-4.48L265.38-4.48L265.38-4.48Q266.24-3.58 267.52-3.46L267.52-3.46L267.52-3.46Q266.88-1.28 264.67 0L264.67 0L264.67 0Q262.46 1.28 259.58 1.28ZM277.18-26.75L277.18-26.75L277.18-26.75Q279.36-29.82 282.66-31.87L282.66-31.87L282.66-31.87Q285.95-33.92 289.98-33.92L289.98-33.92L289.98-33.92Q294.02-33.92 295.94-32.64L295.94-32.64L308.48-33.92L304.13-9.34L304.13-9.34Q301.89 3.20 297.15 8.13L297.15 8.13L297.15 8.13Q292.61 12.80 283.78 12.80L283.78 12.80L283.78 12.80Q277.06 12.80 273.22 10.69L273.22 10.69L273.22 10.69Q269.38 8.58 269.38 5.06L269.38 5.06L269.38 5.06Q269.38 2.43 271.36 0.93L271.36 0.93L271.36 0.93Q273.34-0.58 276.42-0.58L276.42-0.58L276.42-0.58Q279.10-0.58 281.15 0.64L281.15 0.64L281.15 0.64Q282.37 1.28 282.94 2.18L282.94 2.18L282.94 2.18Q281.47 3.46 281.47 5.57L281.47 5.57L281.47 5.57Q281.47 8.32 284.03 8.32L284.03 8.32L284.03 8.32Q288.32 8.32 290.75-1.79L290.75-1.79L290.75-1.79Q291.46-4.54 292.03-7.30L292.03-7.30L292.03-7.30Q289.15-3.78 282.62-3.78L282.62-3.78L282.62-3.78Q278.08-3.78 275.46-5.95L275.46-5.95L275.46-5.95Q272.83-8.13 272.83-13.25L272.83-13.25L272.83-13.25Q272.83-16.45 273.92-20.06L273.92-20.06L273.92-20.06Q275.01-23.68 277.18-26.75ZM285.50-13.06L285.50-13.06L285.50-13.06Q285.50-8.70 287.74-8.70L287.74-8.70L287.74-8.70Q289.28-8.70 290.75-10.37L290.75-10.37L290.75-10.37Q291.90-11.71 292.35-13.70L292.35-13.70L295.62-30.14L295.62-30.14Q295.30-30.21 294.98-30.34L294.98-30.34L294.98-30.34Q294.34-30.59 293.50-30.59L293.50-30.59L293.50-30.59Q289.60-30.59 287.30-24.19L287.30-24.19L287.30-24.19Q285.50-19.20 285.50-13.06Z" fill="url(#editing-shiny-gradient2)"></path></g></g><style>text {
  font-size: 64px;
  font-family: Arial Black;
  dominant-baseline: central;
  text-anchor: middle;
}</style></svg>